<mxfile host="app.diagrams.net" modified="2023-10-31T03:20:21.825Z" agent="Mozilla/5.0 (Macintosh; Intel Mac OS X 10_15_7) AppleWebKit/537.36 (KHTML, like Gecko) Chrome/118.0.0.0 Safari/537.36" etag="tykWdtb2ygPtK0MvZlJm" version="22.0.8" type="github">
  <diagram name="第 1 页" id="XwOfIKq0tnw8-P53mZ7I">
    <mxGraphModel dx="950" dy="510" grid="1" gridSize="10" guides="1" tooltips="1" connect="1" arrows="1" fold="1" page="1" pageScale="1" pageWidth="827" pageHeight="1169" math="0" shadow="0">
      <root>
        <mxCell id="0" />
        <mxCell id="1" parent="0" />
        <mxCell id="KIAm81Sfg12KZMm3VU6N-17" style="edgeStyle=orthogonalEdgeStyle;rounded=0;orthogonalLoop=1;jettySize=auto;html=1;exitX=1;exitY=0.5;exitDx=0;exitDy=0;" edge="1" parent="1" source="KIAm81Sfg12KZMm3VU6N-1" target="KIAm81Sfg12KZMm3VU6N-2">
          <mxGeometry relative="1" as="geometry" />
        </mxCell>
        <mxCell id="KIAm81Sfg12KZMm3VU6N-1" value="估值地图" style="rounded=0;whiteSpace=wrap;html=1;" vertex="1" parent="1">
          <mxGeometry y="320" width="120" height="60" as="geometry" />
        </mxCell>
        <mxCell id="KIAm81Sfg12KZMm3VU6N-19" style="edgeStyle=orthogonalEdgeStyle;rounded=0;orthogonalLoop=1;jettySize=auto;html=1;exitX=1;exitY=0.5;exitDx=0;exitDy=0;exitPerimeter=0;entryX=0;entryY=0.5;entryDx=0;entryDy=0;" edge="1" parent="1" source="KIAm81Sfg12KZMm3VU6N-2" target="KIAm81Sfg12KZMm3VU6N-5">
          <mxGeometry relative="1" as="geometry" />
        </mxCell>
        <mxCell id="KIAm81Sfg12KZMm3VU6N-2" value="MongoDB" style="shape=cylinder3;whiteSpace=wrap;html=1;boundedLbl=1;backgroundOutline=1;size=15;" vertex="1" parent="1">
          <mxGeometry x="210" y="310" width="60" height="80" as="geometry" />
        </mxCell>
        <mxCell id="KIAm81Sfg12KZMm3VU6N-5" value="住宅" style="rounded=0;whiteSpace=wrap;html=1;" vertex="1" parent="1">
          <mxGeometry x="360" y="110" width="76" height="40" as="geometry" />
        </mxCell>
        <mxCell id="KIAm81Sfg12KZMm3VU6N-6" value="商业房地产" style="rounded=0;whiteSpace=wrap;html=1;" vertex="1" parent="1">
          <mxGeometry x="360" y="250" width="76" height="40" as="geometry" />
        </mxCell>
        <mxCell id="KIAm81Sfg12KZMm3VU6N-7" value="工业房地产" style="rounded=0;whiteSpace=wrap;html=1;" vertex="1" parent="1">
          <mxGeometry x="360" y="400" width="76" height="40" as="geometry" />
        </mxCell>
        <mxCell id="KIAm81Sfg12KZMm3VU6N-8" value="土地" style="rounded=0;whiteSpace=wrap;html=1;" vertex="1" parent="1">
          <mxGeometry x="360" y="540" width="76" height="40" as="geometry" />
        </mxCell>
        <mxCell id="KIAm81Sfg12KZMm3VU6N-9" value="住宅-司法拍卖" style="rounded=0;whiteSpace=wrap;html=1;" vertex="1" parent="1">
          <mxGeometry x="480" y="80" width="110" height="40" as="geometry" />
        </mxCell>
        <mxCell id="KIAm81Sfg12KZMm3VU6N-10" value="住宅-二手房" style="rounded=0;whiteSpace=wrap;html=1;" vertex="1" parent="1">
          <mxGeometry x="480" y="140" width="110" height="40" as="geometry" />
        </mxCell>
        <mxCell id="KIAm81Sfg12KZMm3VU6N-11" value="商业房地产-司法拍卖" style="rounded=0;whiteSpace=wrap;html=1;" vertex="1" parent="1">
          <mxGeometry x="480" y="220" width="110" height="40" as="geometry" />
        </mxCell>
        <mxCell id="KIAm81Sfg12KZMm3VU6N-12" value="商业房地产-二手房" style="rounded=0;whiteSpace=wrap;html=1;" vertex="1" parent="1">
          <mxGeometry x="480" y="280" width="110" height="40" as="geometry" />
        </mxCell>
        <mxCell id="KIAm81Sfg12KZMm3VU6N-13" value="工业房地产-司法拍卖" style="rounded=0;whiteSpace=wrap;html=1;" vertex="1" parent="1">
          <mxGeometry x="480" y="360" width="110" height="40" as="geometry" />
        </mxCell>
        <mxCell id="KIAm81Sfg12KZMm3VU6N-14" value="工业房地产-二手房" style="rounded=0;whiteSpace=wrap;html=1;" vertex="1" parent="1">
          <mxGeometry x="480" y="430" width="110" height="40" as="geometry" />
        </mxCell>
        <mxCell id="KIAm81Sfg12KZMm3VU6N-15" value="土地-司法拍卖" style="rounded=0;whiteSpace=wrap;html=1;" vertex="1" parent="1">
          <mxGeometry x="480" y="500" width="110" height="40" as="geometry" />
        </mxCell>
        <mxCell id="KIAm81Sfg12KZMm3VU6N-16" value="土地-中国土地网" style="rounded=0;whiteSpace=wrap;html=1;" vertex="1" parent="1">
          <mxGeometry x="480" y="560" width="110" height="40" as="geometry" />
        </mxCell>
        <mxCell id="KIAm81Sfg12KZMm3VU6N-20" style="edgeStyle=orthogonalEdgeStyle;rounded=0;orthogonalLoop=1;jettySize=auto;html=1;exitX=0;exitY=0.5;exitDx=0;exitDy=0;entryX=1;entryY=0.5;entryDx=0;entryDy=0;entryPerimeter=0;endArrow=none;endFill=0;startArrow=classic;startFill=1;" edge="1" parent="1" source="KIAm81Sfg12KZMm3VU6N-8" target="KIAm81Sfg12KZMm3VU6N-2">
          <mxGeometry relative="1" as="geometry" />
        </mxCell>
        <mxCell id="KIAm81Sfg12KZMm3VU6N-21" style="edgeStyle=orthogonalEdgeStyle;rounded=0;orthogonalLoop=1;jettySize=auto;html=1;exitX=0;exitY=0.5;exitDx=0;exitDy=0;entryX=1;entryY=0.5;entryDx=0;entryDy=0;entryPerimeter=0;startArrow=classic;startFill=1;endArrow=none;endFill=0;" edge="1" parent="1" source="KIAm81Sfg12KZMm3VU6N-6" target="KIAm81Sfg12KZMm3VU6N-2">
          <mxGeometry relative="1" as="geometry" />
        </mxCell>
        <mxCell id="KIAm81Sfg12KZMm3VU6N-22" style="edgeStyle=orthogonalEdgeStyle;rounded=0;orthogonalLoop=1;jettySize=auto;html=1;exitX=0;exitY=0.5;exitDx=0;exitDy=0;entryX=1;entryY=0.5;entryDx=0;entryDy=0;entryPerimeter=0;startArrow=classic;startFill=1;endArrow=none;endFill=0;" edge="1" parent="1" source="KIAm81Sfg12KZMm3VU6N-7" target="KIAm81Sfg12KZMm3VU6N-2">
          <mxGeometry relative="1" as="geometry" />
        </mxCell>
      </root>
    </mxGraphModel>
  </diagram>
</mxfile>
